[Header]
FileType HTR
DataType HTRS
FileVersion 1
NumSegments 48
NumFrames 3
DataFrameRate 30
EulerRotationOrder ZYX
CalibrationUnits mm
RotationUnits Degrees
GlobalAxisofGravity Y
BoneLengthAxis Y
ScaleFactor 1.0
[SegmentNames&Hierarchy]
Wolf	GLOBAL
Becken	Wolf
Bauch	Becken
Bauch_001	Bauch
Brust	Bauch_001
Hals	Brust
Kopf_002	Hals
Kopf	Kopf_002
Unterkiefer	Kopf
Hals_fett	Unterkiefer
Maulunten	Unterkiefer
Mauloben	Kopf
MundW_L	Kopf
MundW_R	Kopf
Augen_con	Kopf
IK_Aug_R	Augen_con
IK_Aug_L	Augen_con
Aug_R	Kopf
aug_L	Kopf
Ohr_L	Kopf
Ohr_R	Kopf
Braun_O_L	Kopf
Braun_O_R	Kopf
aug_lied_O_L	Kopf
aug_lied_O_R	Kopf
aug_lied_U_L	Kopf
aug_lied_U_R	Kopf
Bauch_003	Brust
Schalterplatte_L	Bauch_003
Oberarm_L	Schalterplatte_L
Unterarm_L	Oberarm_L
Vorderpfote_L	Unterarm_L
Schalterplatte_R	Bauch_003
Oberarm_R	Schalterplatte_R
Unterarm_R	Oberarm_R
Vorderpfote_R	Unterarm_R
Schwanz	Becken
Schwanz_001	Schwanz
Schwanz_002	Schwanz_001
Schwanz_003	Schwanz_002
Oberschenkel_L	Becken
Unterschenkel_L	Oberschenkel_L
Pfote1_L	Unterschenkel_L
Pfote2_L	Pfote1_L
Oberschenkel_R	Becken
Unterschenkel_R	Oberschenkel_R
Pfote1_R	Unterschenkel_R
Pfote2_R	Pfote1_R
[BasePosition]
Wolf	0	0	0	0	0	0	1
Becken	0	0	0	0	0	0	1
Bauch	0	0	0	0	0	0	1
Bauch_001	0	0	0	0	0	0	1
Brust	0	0	0	0	0	0	1
Hals	0	0	0	0	0	0	1
Kopf_002	0	0	0	0	0	0	1
Kopf	0	0	0	0	0	0	1
Unterkiefer	0	0	0	0	0	0	1
Hals_fett	0	0	0	0	0	0	1
Maulunten	0	0	0	0	0	0	1
Mauloben	0	0	0	0	0	0	1
MundW_L	0	0	0	0	0	0	1
MundW_R	0	0	0	0	0	0	1
Augen_con	0	0	0	0	0	0	1
IK_Aug_R	0	0	0	0	0	0	1
IK_Aug_L	0	0	0	0	0	0	1
Aug_R	0	0	0	0	0	0	1
aug_L	0	0	0	0	0	0	1
Ohr_L	0	0	0	0	0	0	1
Ohr_R	0	0	0	0	0	0	1
Braun_O_L	0	0	0	0	0	0	1
Braun_O_R	0	0	0	0	0	0	1
aug_lied_O_L	0	0	0	0	0	0	1
aug_lied_O_R	0	0	0	0	0	0	1
aug_lied_U_L	0	0	0	0	0	0	1
aug_lied_U_R	0	0	0	0	0	0	1
Bauch_003	0	0	0	0	0	0	1
Schalterplatte_L	0	0	0	0	0	0	1
Oberarm_L	0	0	0	0	0	0	1
Unterarm_L	0	0	0	0	0	0	1
Vorderpfote_L	0	0	0	0	0	0	1
Schalterplatte_R	0	0	0	0	0	0	1
Oberarm_R	0	0	0	0	0	0	1
Unterarm_R	0	0	0	0	0	0	1
Vorderpfote_R	0	0	0	0	0	0	1
Schwanz	0	0	0	0	0	0	1
Schwanz_001	0	0	0	0	0	0	1
Schwanz_002	0	0	0	0	0	0	1
Schwanz_003	0	0	0	0	0	0	1
Oberschenkel_L	0	0	0	0	0	0	1
Unterschenkel_L	0	0	0	0	0	0	1
Pfote1_L	0	0	0	0	0	0	1
Pfote2_L	0	0	0	0	0	0	1
Oberschenkel_R	0	0	0	0	0	0	1
Unterschenkel_R	0	0	0	0	0	0	1
Pfote1_R	0	0	0	0	0	0	1
Pfote2_R	0	0	0	0	0	0	1
[Wolf]
4	0	0	0	-90	-0	0	1.0
5	0	0	0	-90	-0	0	1.0
6	0	0	0	-90	-0	0	1.0
[Becken]
4	0	0.3823800087	-0.3429818451	-2.067962885	164.4212189	89.26520538	1.0
5	0	0.3745135367	-0.3296537697	-2.067962885	164.4212189	89.26520538	1.0
6	0	0.3645275235	-0.3134697974	-2.067962885	164.4212189	89.26520538	1.0
[Bauch]
4	0.9984878302	-0.00741992658	-0.150611341	-6.458931239e-07	12.60522842	-8.201818247e-08	1.0
5	0.9984878302	-0.00741992658	-0.150611341	-6.458931239e-07	12.60522842	-8.201818247e-08	1.0
6	0.9984878302	-0.00741992658	-0.150611341	-6.458931239e-07	12.60522842	-8.201818247e-08	1.0
[Bauch_001]
4	1.071342349	0.006600080058	-0.1893585622	-1.568805601e-07	2.360082865	-2.503413654e-08	1.0
5	1.071342349	0.006600080058	-0.1893585622	-1.568805601e-07	2.360082865	-2.503413654e-08	1.0
6	1.071342349	0.006600080058	-0.1893585622	-1.568805601e-07	2.360082865	-2.503413654e-08	1.0
[Brust]
4	1.41907382	-0.01381989196	0.3623858392	3.618613846e-06	10.7627573	-4.096809789e-05	1.0
5	1.41907382	-0.01381989196	0.3623858392	3.618613846e-06	10.7627573	-4.096809789e-05	1.0
6	1.41907382	-0.01381989196	0.3623858392	3.618613846e-06	10.7627573	-4.096809789e-05	1.0
[Hals]
4	1.1844244	-0.01484991144	1.02827692	-4.51789947e-06	46.87745285	-2.16624926e-06	1.0
5	1.1844244	-0.01484991144	1.02827692	-4.51789947e-06	46.87745285	-2.16624926e-06	1.0
6	1.1844244	-0.01484991144	1.02827692	-4.51789947e-06	46.87745285	-2.16624926e-06	1.0
[Kopf_002]
4	1.75259161	3.012944944e-05	0.2651725411	0.006653842982	-165.1497192	0.002556535648	1.0
5	1.75259161	3.012944944e-05	0.2651725411	0.006653842982	-165.1497192	0.002556535648	1.0
6	1.75259161	3.012944944e-05	0.2651725411	0.006653842982	-165.1497192	0.002556535648	1.0
[Kopf]
4	1.015781879	8.032657206e-08	9.111317922e-08	0.06872025877	123.2280426	-0.02605217695	1.0
5	1.015781879	8.032657206e-08	9.111317922e-08	0.06872025877	123.2280426	-0.02605217695	1.0
6	1.015781879	8.032657206e-08	9.111317922e-08	0.06872025877	123.2280426	-0.02605217695	1.0
[Unterkiefer]
4	0.6370437145	0.004552738741	0.4060620368	5.412721157	-68.3888092	-3.09354353	1.0
5	0.6370437145	0.004552738741	0.4060620368	5.412721157	-68.3888092	-3.09354353	1.0
6	0.6370437145	0.004552738741	0.4060620368	5.412721157	-68.3888092	-3.09354353	1.0
[Hals_fett]
4	0.2998299599	0.007747137919	0.1206380203	-5.071650982	-59.35961533	5.585566998	1.0
5	0.2998299599	0.007747137919	0.1206380203	-5.071650982	-59.35961533	5.585566998	1.0
6	0.2998299599	0.007747137919	0.1206380203	-5.071650982	-59.35961533	5.585566998	1.0
[Maulunten]
4	0.08317943662	-0.007747350261	-0.1206459776	-3.32220912	38.97271347	-0.871876061	1.0
5	0.08317943662	-0.007747350261	-0.1206459776	-3.32220912	38.97271347	-0.871876061	1.0
6	0.08317943662	-0.007747350261	-0.1206459776	-3.32220912	38.97271347	-0.871876061	1.0
[Mauloben]
4	0.910148263	0.0004056794569	0.4003701806	-0.1032674983	-28.77768707	0.03543139994	1.0
5	0.910148263	0.0004056794569	0.4003701806	-0.1032674983	-28.77768707	0.03543139994	1.0
6	0.910148263	0.0004056794569	0.4003701806	-0.1032674983	-28.77768707	0.03543139994	1.0
[MundW_L]
4	0.673060894	-0.3618556261	0.3751286268	-179.8370972	-17.94884872	24.71397209	1.0
5	0.673060894	-0.3618556261	0.3751286268	-179.8370972	-17.94884872	24.71397209	1.0
6	0.673060894	-0.3618556261	0.3751286268	-179.8370972	-17.94884872	24.71397209	1.0
[MundW_R]
4	0.6732318401	0.3627035022	0.37398085	179.6653442	-18.02427101	-24.69083977	1.0
5	0.6732318401	0.3627035022	0.37398085	179.6653442	-18.02427101	-24.69083977	1.0
6	0.6732318401	0.3627035022	0.37398085	179.6653442	-18.02427101	-24.69083977	1.0
[Augen_con]
4	1.807372689	-0.0001604028512	0.1835819334	0.09822253883	157.1545258	0.02385936864	1.0
5	1.807372689	-0.0001604028512	0.1835819334	0.09822253883	157.1545258	0.02385936864	1.0
6	1.807372689	-0.0001604028512	0.1835819334	0.09822253883	157.1545258	0.02385936864	1.0
[IK_Aug_R]
4	0.3461304307	0.2943200469	-8.032657206e-08	-0.4194762409	-4.963055134	165.6946411	1.0
5	0.3461304307	0.2943200469	-8.032657206e-08	-0.4194762409	-4.963055134	165.6946411	1.0
6	0.3461304307	0.2943200469	-8.032657206e-08	-0.4194762409	-4.963055134	165.6946411	1.0
[IK_Aug_L]
4	0.3461307883	-0.2943199575	-1.629814861e-08	0.4194769561	-4.963055134	-165.6946411	1.0
5	0.3461307883	-0.2943199575	-1.629814861e-08	0.4194769561	-4.963055134	-165.6946411	1.0
6	0.3461307883	-0.2943199575	-1.629814861e-08	0.4194769561	-4.963055134	-165.6946411	1.0
[Aug_R]
4	1.0351547	0.2207805812	-0.09605748951	176.004776	-17.29163933	12.85548019	1.0
5	1.0351547	0.2207805812	-0.09605748951	176.004776	-17.29163933	12.85548019	1.0
6	1.0351547	0.2207805812	-0.09605748951	176.004776	-17.29163933	12.85548019	1.0
[aug_L]
4	1.035044074	-0.2215988934	-0.09535883367	-176.1891022	-17.33178139	-12.83103275	1.0
5	1.035044074	-0.2215988934	-0.09535883367	-176.1891022	-17.33178139	-12.83103275	1.0
6	1.035044074	-0.2215988934	-0.09535883367	-176.1891022	-17.33178139	-12.83103275	1.0
[Ohr_L]
4	0.6407760978	-0.3659991622	-0.6893320084	-24.34924507	53.07766342	-15.02013397	1.0
5	0.6407760978	-0.3659991622	-0.6893320084	-24.34924507	53.07766342	-15.02013397	1.0
6	0.6407760978	-0.3659991622	-0.6893320084	-24.34924507	53.07766342	-15.02013397	1.0
[Ohr_R]
4	0.6409583092	0.3634999394	-0.6904845238	24.05786133	53.12416077	14.75857162	1.0
5	0.6409583092	0.3634999394	-0.6904845238	24.05786133	53.12416077	14.75857162	1.0
6	0.6409583092	0.3634999394	-0.6904845238	24.05786133	53.12416077	14.75857162	1.0
[Braun_O_L]
4	0.9801794291	-0.3706048727	-0.3292538524	-143.3172302	-34.69635391	52.39493942	1.0
5	0.9801794291	-0.3706048727	-0.3292538524	-143.3172302	-34.69635391	52.39493942	1.0
6	0.9801794291	-0.3706048727	-0.3292538524	-143.3172302	-34.69635391	52.39493942	1.0
[Braun_O_R]
4	0.9803634882	0.3690741956	-0.3304223716	143.1826782	-34.83971786	-52.3467598	1.0
5	0.9803634882	0.3690741956	-0.3304223716	143.1826782	-34.83971786	-52.3467598	1.0
6	0.9803634882	0.3690741956	-0.3304223716	143.1826782	-34.83971786	-52.3467598	1.0
[aug_lied_O_L]
4	1.038881421	-0.3271433711	-0.1608108282	-175.8613434	-20.15596199	60.31666946	1.0
5	1.038881421	-0.3271433711	-0.1608108282	-175.8613434	-20.15596199	60.31666946	1.0
6	1.038881421	-0.3271433711	-0.1608108282	-175.8613434	-20.15596199	60.31666946	1.0
[aug_lied_O_R]
4	1.039044261	0.3261157274	-0.1618429124	175.7657928	-20.31323814	-60.31218338	1.0
5	1.039044261	0.3261157274	-0.1618429124	175.7657928	-20.31323814	-60.31218338	1.0
6	1.039044261	0.3261157274	-0.1618429124	175.7657928	-20.31323814	-60.31218338	1.0
[aug_lied_U_L]
4	1.021915555	-0.3312865496	-0.1338484734	-159.8099365	-28.7482872	60.17461395	1.0
5	1.021915555	-0.3312865496	-0.1338484734	-159.8099365	-28.7482872	60.17461395	1.0
6	1.021915555	-0.3312865496	-0.1338484734	-159.8099365	-28.7482872	60.17461395	1.0
[aug_lied_U_R]
4	1.02207756	0.3303526342	-0.1348843277	159.7071381	-28.90532684	-60.15359116	1.0
5	1.02207756	0.3303526342	-0.1348843277	159.7071381	-28.90532684	-60.15359116	1.0
6	1.02207756	0.3303526342	-0.1348843277	159.7071381	-28.90532684	-60.15359116	1.0
[Bauch_003]
4	1.444672227	0.03385011479	-1.56629622	-3.870021374e-06	-137.6799469	1.039222207e-05	1.0
5	1.444672227	0.03385011479	-1.56629622	-3.870021374e-06	-137.6799469	1.039222207e-05	1.0
6	1.444672227	0.03385011479	-1.56629622	-3.870021374e-06	-137.6799469	1.039222207e-05	1.0
[Schalterplatte_L]
4	0.9703241587	-0.380283922	-0.09970337898	-72.44293976	76.42285156	-101.7145691	1.0
5	0.9633094668	-0.3806886077	-0.09267902374	-68.05574036	76.6076889	-97.33971405	1.0
6	0.9546636343	-0.3810932934	-0.08381214738	-62.52260208	76.75719452	-91.81543732	1.0
[Oberarm_L]
4	1.418636918	9.313225746e-08	1.303851604e-07	-70.55625916	-64.5404129	85.60559845	1.0
5	1.418636918	9.313225746e-08	1.303851604e-07	-71.46421814	-64.66660309	86.61433411	1.0
6	1.418636918	9.313225746e-08	1.303851604e-07	-72.54801178	-64.80623627	87.8008194	1.0
[Unterarm_L]
4	2.028227806	1.885928214e-07	1.862644972e-08	12.46302223	72.15364838	13.13849926	1.0
5	2.028227806	1.885928214e-07	1.862644972e-08	11.997715	71.55404663	12.61232185	1.0
6	2.028227806	1.885928214e-07	1.862644972e-08	11.34572792	70.70697784	11.88811684	1.0
[Vorderpfote_L]
4	1.705947399	2.607703209e-07	2.305023372e-07	0.6916621327	71.65135956	2.161921501	1.0
5	1.705947399	2.607703209e-07	2.305023372e-07	0.908375442	74.48564911	2.314127684	1.0
6	1.705947399	2.607703209e-07	2.305023372e-07	1.234272122	77.86979675	2.562419653	1.0
[Schalterplatte_R]
4	1.093282104	0.4042676687	0.1671682447	11.03565979	73.31272888	41.92080307	1.0
5	1.070217133	0.4014628828	0.1531179696	13.66506672	74.50505829	45.20812607	1.0
6	1.042333722	0.398658067	0.1356933117	18.12233734	76.10668182	50.45875931	1.0
[Oberarm_R]
4	1.418636441	2.235174179e-07	1.490116119e-07	99.21788788	-59.59550095	-118.9686356	1.0
5	1.418636441	2.235174179e-07	1.490116119e-07	104.0822678	-58.69902802	-124.9537811	1.0
6	1.418636441	2.235174179e-07	1.490116119e-07	109.4220657	-57.35430908	-131.6585083	1.0
[Unterarm_R]
4	2.028232098	1.350417733e-07	-7.450580597e-08	-8.025660515	62.81531143	-8.597265244	1.0
5	2.028232098	1.350417733e-07	-7.450580597e-08	-9.772098541	65.35398102	-10.50924778	1.0
6	2.028232098	1.350417733e-07	-7.450580597e-08	-12.22677612	68.12360382	-13.19669628	1.0
[Vorderpfote_R]
4	1.705937624	9.313230187e-09	7.101335342e-08	-31.89145279	86.35660553	-31.14488602	1.0
5	1.705937624	9.313230187e-09	7.101335342e-08	-3.231435061	78.80361176	-1.647972584	1.0
6	1.705937624	9.313230187e-09	7.101335342e-08	-2.899206877	68.51128387	-0.2076753825	1.0
[Schwanz]
4	-0.1613513529	-1.338776023e-08	0.09908013046	0.1810355037	-125.427742	-0.5765258074	1.0
5	-0.153259173	-1.338776023e-08	0.0951410532	0.1661617607	-124.9540863	-0.5186133981	1.0
6	-0.1429882199	-1.338776023e-08	0.08938506246	0.146945253	-124.3788071	-0.4472512603	1.0
[Schwanz_001]
4	0.9104326963	6.926712359e-08	1.564329999e-09	-0.5424801707	-12.38997746	0.4788529277	1.0
5	0.9104326963	6.926712359e-08	1.564329999e-09	-0.5565534234	-11.8428278	0.4955677986	1.0
6	0.9104326963	6.926712359e-08	1.564329999e-09	-0.5734316707	-11.17824936	0.5156772733	1.0
[Schwanz_002]
4	0.7855662704	6.053597446e-08	1.369335223e-07	-0.05221218616	-12.14493465	0.03983393312	1.0
5	0.7855662704	6.053597446e-08	1.369335223e-07	-0.08932875097	-12.45273018	0.06824500114	1.0
6	0.7855662704	6.053597446e-08	1.369335223e-07	-0.1346338391	-12.82652569	0.1030209139	1.0
[Schwanz_003]
4	0.8350353241	6.286426668e-08	8.163624443e-08	-0.6320012808	-22.64773369	0.7239411473	1.0
5	0.8350353241	6.286426668e-08	8.163624443e-08	-0.4775717556	-18.93855667	0.5696870089	1.0
6	0.8350353241	6.286426668e-08	8.163624443e-08	-0.3045927286	-14.40653515	0.3969318867	1.0
[Oberschenkel_L]
4	0.4953411818	-0.5837000012	0.09000974894	20.96324348	-71.46342468	-16.02314568	1.0
5	0.5175121427	-0.5837000012	0.0675458312	19.67230797	-69.88141632	-14.65606403	1.0
6	0.5444316268	-0.5837000012	0.04025991261	18.44368172	-68.10847473	-13.34218502	1.0
[Unterschenkel_L]
4	1.686439037	1.276583532e-07	2.865606086e-10	-85.0169754	-77.74654388	92.52143097	1.0
5	1.686439037	1.272344861e-07	3.820808114e-10	-99.01170349	-77.45927429	106.8158798	1.0
6	1.686439037	1.268106189e-07	4.776010698e-10	-111.9650879	-76.46807861	120.097084	1.0
[Pfote1_L]
4	1.190900326	1.321045175e-07	-1.610113429e-07	2.14861393	34.39567566	-6.118345737	1.0
5	1.190900326	1.326776413e-07	-1.595785335e-07	2.07178545	35.70423508	-6.252051353	1.0
6	1.190900326	1.332507651e-07	-1.581457525e-07	1.976383328	37.23482895	-6.41326046	1.0
[Pfote2_L]
4	0.9876256585	1.669933027e-07	-1.068871711e-07	32.37736893	101.5064621	26.84244156	1.0
5	0.9876256585	1.65226183e-07	-1.052633252e-07	30.00789833	103.0093384	24.2760582	1.0
6	0.9876256585	1.634590632e-07	-1.036394863e-07	28.23009109	104.5186996	22.28082275	1.0
[Oberschenkel_R]
4	0.7203069329	0.5837000608	0.08177042753	-10.4596405	-30.2842083	3.372569323	1.0
5	0.7063186169	0.5837000608	0.08420048654	-10.55984211	-31.85022354	3.566197157	1.0
6	0.6888591051	0.5837000608	0.08804322779	-10.69704914	-33.84608459	3.820808649	1.0
[Unterschenkel_R]
4	1.686449051	1.11758709e-07	3.725289943e-08	-50.9696846	-111.2172699	35.68654251	1.0
5	1.686449051	1.11758709e-07	3.725289943e-08	-52.10281372	-110.7392578	36.83489227	1.0
6	1.686449051	1.11758709e-07	3.725289943e-08	-53.64175797	-110.1254654	38.40100479	1.0
[Pfote1_R]
4	1.190900326	2.176966518e-07	1.11758709e-07	-4.719306469	59.69874954	2.635817766	1.0
5	1.190900326	2.176966518e-07	1.11758709e-07	-4.805087566	60.1459465	2.536706448	1.0
6	1.190900326	2.176966518e-07	1.11758709e-07	-4.913961887	60.69704819	2.411432981	1.0
[Pfote2_R]
4	0.9876256585	1.024454832e-07	-4.656610209e-09	-81.86459351	98.61620331	-70.08657837	1.0
5	0.9876256585	1.024454832e-07	-4.656610209e-09	-78.36270142	98.47808075	-66.48623657	1.0
6	0.9876256585	1.024454832e-07	-4.656610209e-09	-73.76496887	98.33934021	-61.77694321	1.0
[EndOfFile]
